{
  "accessors": [
    {
      "bufferView": 2,
      "componentType": 5126,
      "count": 309,
      "max": [
        256.6053771972656,
        19.617895126342773,
        124.92131042480469
      ],
      "min": [
        -211.2982940673828,
        -19.61786651611328,
        -192.65325927734375
      ],
      "type": "VEC3"
    },
    {
      "bufferView": 2,
      "byteOffset": 3708,
      "componentType": 5126,
      "count": 309,
      "max": [
        1.0,
        1.0,
        1.0
      ],
      "min": [
        -1.0,
        -1.0,
        -1.0
      ],
      "type": "VEC3"
    },
    {
      "bufferView": 1,
      "componentType": 5126,
      "count": 309,
      "max": [
        0.9999997615814209,
        1.0
      ],
      "min": [
        0.0,
        0.0
      ],
      "type": "VEC2"
    },
    {
      "bufferView": 0,
      "componentType": 5125,
      "count": 504,
      "type": "SCALAR"
    },
    {
      "bufferView": 2,
      "byteOffset": 7416,
      "componentType": 5126,
      "count": 1436,
      "max": [
        100.00003814697266,
        100.00003814697266,
        104.91888427734375
      ],
      "min": [
        -100.00004577636719,
        -100.00001525878906,
        -100.00006103515625
      ],
      "type": "VEC3"
    },
    {
      "bufferView": 2,
      "byteOffset": 24648,
      "componentType": 5126,
      "count": 1436,
      "max": [
        1.0,
        1.0,
        1.0
      ],
      "min": [
        -1.0,
        -1.0,
        -1.0
      ],
      "type": "VEC3"
    },
    {
      "bufferView": 1,
      "byteOffset": 2472,
      "componentType": 5126,
      "count": 1436,
      "max": [
        1.0,
        1.0
      ],
      "min": [
        0.0,
        0.0
      ],
      "type": "VEC2"
    },
    {
      "bufferView": 0,
      "byteOffset": 2016,
      "componentType": 5125,
      "count": 1620,
      "type": "SCALAR"
    }
  ],
  "asset": {
    "extras": {
      "author": "Gunnar Correa (https://sketchfab.com/gunnarcorrea)",
      "license": "CC-BY-4.0 (http://creativecommons.org/licenses/by/4.0/)",
      "source": "https://sketchfab.com/3d-models/floppy-disk-c016d5a98ff64f1bb78f455987455a69",
      "title": "Floppy Disk"
    },
    "generator": "Sketchfab-12.68.0",
    "version": "2.0"
  },
  "bufferViews": [
    {
      "buffer": 0,
      "byteLength": 8496,
      "name": "floatBufferViews",
      "target": 34963
    },
    {
      "buffer": 0,
      "byteLength": 13960,
      "byteOffset": 8496,
      "byteStride": 8,
      "name": "floatBufferViews",
      "target": 34962
    },
    {
      "buffer": 0,
      "byteLength": 41880,
      "byteOffset": 22456,
      "byteStride": 12,
      "name": "floatBufferViews",
      "target": 34962
    }
  ],
  "buffers": [
    {
      "byteLength": 64336,
      "uri": "scene.bin"
    }
  ],
  "images": [
    {
      "uri": "textures/Lock_baseColor.png"
    },
    {
      "uri": "textures/Disk_baseColor.png"
    }
  ],
  "materials": [
    {
      "doubleSided": true,
      "name": "Lock",
      "pbrMetallicRoughness": {
        "baseColorTexture": {
          "index": 0
        },
        "metallicFactor": 0.4346417682926829,
        "roughnessFactor": 0.0
      }
    },
    {
      "doubleSided": true,
      "name": "Disk",
      "pbrMetallicRoughness": {
        "baseColorTexture": {
          "index": 1
        },
        "metallicFactor": 0.0,
        "roughnessFactor": 0.38852896341463417
      }
    }
  ],
  "meshes": [
    {
      "name": "Trava_Lock_0",
      "primitives": [
        {
          "attributes": {
            "NORMAL": 1,
            "POSITION": 0,
            "TEXCOORD_0": 2
          },
          "indices": 3,
          "material": 0,
          "mode": 4
        }
      ]
    },
    {
      "name": "Disk_Disk_0",
      "primitives": [
        {
          "attributes": {
            "NORMAL": 5,
            "POSITION": 4,
            "TEXCOORD_0": 6
          },
          "indices": 7,
          "material": 1,
          "mode": 4
        }
      ]
    }
  ],
  "nodes": [
    {
      "children": [
        1
      ],
      "matrix": [
        1.0,
        0.0,
        0.0,
        0.0,
        0.0,
        2.220446049250313e-16,
        -1.0,
        0.0,
        0.0,
        1.0,
        2.220446049250313e-16,
        0.0,
        0.0,
        0.0,
        0.0,
        1.0
      ],
      "name": "Sketchfab_model"
    },
    {
      "children": [
        2
      ],
      "matrix": [
        1.0,
        0.0,
        0.0,
        0.0,
        0.0,
        0.0,
        1.0,
        0.0,
        0.0,
        -1.0,
        0.0,
        0.0,
        0.0,
        0.0,
        0.0,
        1.0
      ],
      "name": "65521384a6b7485b9a733d25f94042d7.fbx"
    },
    {
      "children": [
        3,
        5,
        7,
        10
      ],
      "name": "RootNode"
    },
    {
      "children": [
        4
      ],
      "matrix": [
        0.06617140769958496,
        0.0,
        0.0,
        0.0,
        -0.0,
        -7.318131276411325e-09,
        -0.04491836950182855,
        0.0,
        0.0,
        0.06617140769958409,
        -1.0780690698730246e-08,
        0.0,
        -2.2208003997802734,
        22.852773666381836,
        -0.001109205186367035,
        1.0
      ],
      "name": "Trava"
    },
    {
      "mesh": 0,
      "name": "Trava_Lock_0"
    },
    {
      "children": [
        6
      ],
      "matrix": [
        0.2940295934677124,
        0.0,
        0.0,
        0.0,
        0.0,
        -9.267096673721794e-10,
        -0.005688103381544276,
        0.0,
        0.0,
        0.2940295934677085,
        -4.79035011290637e-08,
        0.0,
        0.0,
        0.0,
        0.0,
        1.0
      ],
      "name": "Disk"
    },
    {
      "mesh": 1,
      "name": "Disk_Disk_0"
    },
    {
      "children": [
        8
      ],
      "matrix": [
        29.086468749190388,
        -5.518906201195825,
        95.51712168990301,
        0.0,
        -56.63933043499768,
        79.46721915727699,
        21.839123775565167,
        0.0,
        -77.1100752993428,
        -60.4524834758613,
        19.988334821350197,
        0.0,
        -407.6245422363281,
        590.38623046875,
        100.54539489746094,
        1.0
      ],
      "name": "Lamp"
    },
    {
      "children": [
        9
      ],
      "matrix": [
        1.0,
        0.0,
        0.0,
        0.0,
        0.0,
        2.220446049250313e-16,
        1.0,
        0.0,
        0.0,
        -1.0,
        2.220446049250313e-16,
        0.0,
        0.0,
        0.0,
        0.0,
        1.0
      ],
      "name": "Object_8"
    },
    {
      "name": "Object_9"
    },
    {
      "children": [
        11
      ],
      "matrix": [
        39.61956546897698,
        -23.66983453907329,
        88.71319231558125,
        0.0,
        9.65301781023448,
        97.15831193044126,
        21.612037018835657,
        0.0,
        -91.30778048253715,
        0.0009050984625437608,
        40.77855745870085,
        0.0,
        -69.67630767822266,
        39.36724853515625,
        -173.62100219726563,
        1.0
      ],
      "name": "Camera"
    },
    {
      "name": "Object_11"
    }
  ],
  "samplers": [
    {
      "magFilter": 9729,
      "minFilter": 9987,
      "wrapS": 10497,
      "wrapT": 10497
    }
  ],
  "scene": 0,
  "scenes": [
    {
      "name": "Sketchfab_Scene",
      "nodes": [
        0
      ]
    }
  ],
  "textures": [
    {
      "sampler": 0,
      "source": 0
    },
    {
      "sampler": 0,
      "source": 1
    }
  ]
}
